<svg id="レイヤー_1" data-name="レイヤー 1" xmlns="http://www.w3.org/2000/svg" viewBox="0 0 170 19"><defs><style>.cls-1,.cls-2{fill:#fff;}.cls-2,.cls-3,.cls-4{stroke:#fff;stroke-linecap:round;stroke-linejoin:round;}.cls-2{stroke-width:0.42px;}.cls-3,.cls-4{fill:none;}.cls-3{stroke-width:0.86px;}.cls-4{stroke-width:0.92px;}</style></defs><path class="cls-1" d="M3.32,4.54C3.44,7,3.48,8.05,3.48,9v6.56a.76.76,0,0,1-.79.73h0a.76.76,0,0,1-.83-.68h0V4.07A1.29,1.29,0,0,1,3,2.67h.18C4,2.67,4.42,3,4.84,4.19L6.91,9.9c.54,1.47.83,2.37,1.1,3.33h.08c.23-.82.63-2.06,1.09-3.33l2.1-5.71C11.7,3,12.09,2.67,13,2.67a1.3,1.3,0,0,1,1.3,1.26V15.6a.77.77,0,0,1-.81.73h0a.75.75,0,0,1-.82-.67h0V9c0-.93,0-2.06.15-4.45V4.3h-.1c-.38,1.26-1,3.14-1.4,4.18L9,14.71a1,1,0,0,1-1,.7.94.94,0,0,1-1-.7L4.81,8.48c-.37-.94-1.06-3-1.41-4.18H3.31Z"/><path class="cls-1" d="M28.91,9.47c0,4.27-2.25,7-5.79,7s-5.8-2.71-5.8-7,2.22-6.94,5.76-6.94S28.91,5.26,28.91,9.47Zm-9.74,0c0,3.33,1.58,5.52,3.95,5.52s3.94-2.21,3.94-5.52S25.52,4,23.06,4s-3.94,2.15-3.94,5.5Z"/><path class="cls-1" d="M33.17,15.48a.88.88,0,0,1-1,.74.89.89,0,0,1-.74-.74V4.9a1.91,1.91,0,0,1,1.62-2.16,2.44,2.44,0,0,1,.54,0H35.3a6.56,6.56,0,0,1,3.08.64,3.4,3.4,0,0,1,1.81,3c0,1.79-1.29,3.06-3.45,3.39v.05a4.19,4.19,0,0,1,2,1.62,14.62,14.62,0,0,1,2.17,4.16c0,.38-.4.67-.94.67s-.68-.13-1-.92c-2-4.18-2.73-5-4.62-5H33.17ZM34.84,9c2.27,0,3.56-.93,3.56-2.52S37.17,4.09,35,4.09H33.9c-.5,0-.75.23-.75.73V9Z"/><path class="cls-1" d="M45.29,15.56a.79.79,0,0,1-.83.75h0a.79.79,0,0,1-.86-.7V3.44a.76.76,0,0,1,.79-.75h.07a.79.79,0,0,1,.86.71V15.56Z"/><path class="cls-1" d="M55.52,5.66c-.15.83-.29,1.44-.69,3l-2,7.12a.82.82,0,0,1-.87.62c-.46,0-.69-.2-.85-.73L47.91,3.93a1.62,1.62,0,0,1-.11-.58.79.79,0,0,1,.82-.75h.06c.46,0,.71.25.87.85l1.77,6.79c.28,1.12.5,2.26.67,3.4h.08a28.33,28.33,0,0,1,.71-3.29l1.81-6.52a1,1,0,0,1,1-.69.92.92,0,0,1,1,.69l1.81,6.52c.25.89.52,2.16.71,3.29h.08a30,30,0,0,1,.67-3.4l1.7-6.77c.16-.62.41-.85.87-.85a.82.82,0,0,1,.89.72h0A1.84,1.84,0,0,1,63.2,4L60,15.65c-.16.51-.39.73-.83.73a.8.8,0,0,1-.89-.62l-2-7.12q-.42-1.49-.69-3Z"/><path class="cls-1" d="M65.24,15.55c-.19.6-.42.81-.91.81a.83.83,0,0,1-.92-.73h0a1.92,1.92,0,0,1,.15-.67l4-11.43a1.21,1.21,0,0,1,2.35,0l4,11.43a1.92,1.92,0,0,1,.15.67c0,.44-.36.73-.92.73s-.71-.21-.91-.81l-1-3.29h-5Zm4.27-8.44c-.15-.43-.6-2-.75-2.66h-.08c-.21.87-.56,2-.75,2.66l-1.21,3.81h4Z"/><path class="cls-1" d="M78.15,15.61a.79.79,0,0,1-.85.73h0a.77.77,0,0,1-.86-.67h0V3.43a.87.87,0,0,1,1.73,0V8.89l5.5-5.75c.33-.35.54-.46.79-.46a.85.85,0,0,1,.92.75h0a1,1,0,0,1-.32.69L80.57,8.61l5.16,6.31a1.22,1.22,0,0,1,.31.67.82.82,0,0,1-.9.75h0a1.1,1.1,0,0,1-.94-.54L79.46,9.63,78.15,11Z"/><path class="cls-1" d="M90.5,15.56a.79.79,0,0,1-.83.75h0a.79.79,0,0,1-.86-.7V3.44a.76.76,0,0,1,.79-.75h.07a.79.79,0,0,1,.86.71V15.56Z"/><path class="cls-1" d="M122.16,14.73c.17-.65.59-2,1-3.17L126,3.07c.21-.6.47-.84,1-.84a1,1,0,0,1,1,.84,2.44,2.44,0,0,1-.19.84l-4.55,12.64a1.24,1.24,0,0,1-1.64.58,1.17,1.17,0,0,1-.58-.58L116.47,3.87a2.63,2.63,0,0,1-.19-.77.93.93,0,0,1,.94-.91h.06c.5,0,.76.24,1,.84l2.83,8.49c.53,1.55.74,2.22,1,3.17Z"/><path class="cls-1" d="M132.13,3.56a1.25,1.25,0,1,1-1.28-1.22h0A1.26,1.26,0,0,1,132.13,3.56Zm-.33,12.76a.92.92,0,0,1-1,.81.9.9,0,0,1-.81-.81V7.46a.91.91,0,0,1,1.81,0Z"/><path class="cls-1" d="M142.52,2.51a.84.84,0,0,1,.83-.84h.07a.88.88,0,0,1,.93.83h0V16.39a.79.79,0,0,1-.79.79h-.05a.74.74,0,0,1-.76-.67l-.23-1a3.81,3.81,0,0,1-3.27,1.82c-2.62,0-4.37-2.18-4.37-5.48s1.79-5.37,4.39-5.37a3.78,3.78,0,0,1,3.21,1.68Zm-5.71,9.3c0,2.44,1.09,4,2.82,4a2.9,2.9,0,0,0,2.62-1.88,5.87,5.87,0,0,0,.31-2.08,4.65,4.65,0,0,0-.39-2.18A2.93,2.93,0,0,0,139.63,8C137.9,8,136.81,9.46,136.81,11.81Z"/><path class="cls-1" d="M148.67,12.08c.06,2.33,1.28,3.7,3.28,3.7a3.37,3.37,0,0,0,2.66-1.3c.25-.3.4-.38.63-.38a.78.78,0,0,1,.78.75c0,.28-.15.55-.53,1a4.56,4.56,0,0,1-3.61,1.45c-3,0-5-2.14-5-5.4s1.91-5.39,4.75-5.39a4.46,4.46,0,0,1,3,1.09,4.69,4.69,0,0,1,1.49,3.27,1,1,0,0,1-.8,1.17h0a1,1,0,0,1-.35,0ZM154,10.76a.31.31,0,0,0,.35-.27h0a3,3,0,0,0-.59-1.59,2.72,2.72,0,0,0-2.14-1,2.94,2.94,0,0,0-2.84,2.9Z"/><path class="cls-1" d="M168.19,11.87c0,3.19-2.05,5.42-5,5.42s-5-2.23-5-5.42,2.08-5.37,5-5.37S168.19,8.74,168.19,11.87Zm-8.16,0c0,2.33,1.28,3.93,3.17,3.93s3.12-1.62,3.12-4-1.32-4-3.17-4S160,9.58,160,11.87Z"/><polygon class="cls-2" points="101.84 7.11 101.85 10.68 107.18 8.67 101.84 7.11"/><path class="cls-3" d="M104.22,15.94a6.76,6.76,0,0,1-3.13,2,8.07,8.07,0,0,1-2.63.35"/><path class="cls-4" d="M103,15.56a9.51,9.51,0,0,0,2.71,2,8.54,8.54,0,0,0,3.09.9,9.2,9.2,0,0,0,1.66,0"/><path class="cls-1" d="M108,.5h-.1a4.69,4.69,0,0,0-4.09,2.26A4.7,4.7,0,0,0,99.67.5h-.1a4.66,4.66,0,0,0-3.52,1.55A6.28,6.28,0,0,0,94.63,6.3c0,3.4,2.73,5.48,5.36,7.48a32.07,32.07,0,0,1,3,2.45l0,.06a1,1,0,0,0,.73.36h.06a1,1,0,0,0,.72-.36l0-.06a32.07,32.07,0,0,1,3-2.45c2.64-2,5.36-4.08,5.36-7.48S110.87.5,108,.5Zm-.07,11.71a49,49,0,0,0-4.06,3.28l-.06.07-.06-.07c-1.69-1.63-3.73-2.92-5.33-4.32A10,10,0,0,1,96.43,9a5,5,0,0,1-.76-2.65,5.27,5.27,0,0,1,1.16-3.56,3.58,3.58,0,0,1,2.74-1.2h.08a3.78,3.78,0,0,1,2.68,1.06,4.06,4.06,0,0,1,1.1,2.18.34.34,0,0,0,.34.29.35.35,0,0,0,.34-.29,4.06,4.06,0,0,1,1.1-2.18,3.75,3.75,0,0,1,2.67-1.06H108a3.57,3.57,0,0,1,2.74,1.2,5.22,5.22,0,0,1,1.16,3.56A5.06,5.06,0,0,1,111.11,9,13.21,13.21,0,0,1,107.89,12.21Z"/></svg>