<svg id="レイヤー_1" data-name="レイヤー 1" xmlns="http://www.w3.org/2000/svg" viewBox="0 0 195 45"><defs><style>.cls-1{fill:#040000;}.cls-2,.cls-3,.cls-4{fill:none;stroke:#040000;stroke-linecap:round;stroke-linejoin:round;}.cls-2{stroke-width:1.52px;}.cls-3{stroke-width:1.5px;}.cls-4{stroke-width:0.74px;}</style></defs><path class="cls-1" d="M10.41,16c.12,2.43.16,3.51.16,4.47v6.56a.76.76,0,0,1-.83.73.76.76,0,0,1-.83-.73V15.53a1.29,1.29,0,0,1,1.35-1.4c.85,0,1.25.36,1.67,1.52L14,21.36c.54,1.47.83,2.37,1.1,3.33h.08c.23-.82.63-2.06,1.09-3.33l2.1-5.71c.42-1.17.81-1.52,1.69-1.52a1.3,1.3,0,0,1,1.33,1.4V27.06a.77.77,0,0,1-.83.73.75.75,0,0,1-.82-.73V20.5c0-.93,0-2.06.15-4.45l0-.29h-.1c-.38,1.26-1,3.14-1.4,4.18l-2.29,6.23a1,1,0,0,1-1,.7.94.94,0,0,1-1-.7L11.9,19.94c-.37-.94-1.06-3-1.41-4.18H10.4Z"/><path class="cls-1" d="M36,20.94c0,4.27-2.25,7-5.79,7s-5.8-2.71-5.8-7S26.63,14,30.17,14,36,16.73,36,20.94Zm-9.74,0c0,3.33,1.58,5.52,3.95,5.52s3.94-2.21,3.94-5.52-1.54-5.52-4-5.52S26.21,17.57,26.21,20.92Z"/><path class="cls-1" d="M40.26,27a.88.88,0,0,1-1.74,0V16.42a1.91,1.91,0,0,1,2.16-2.16h1.71a6.47,6.47,0,0,1,3.08.64,3.39,3.39,0,0,1,1.81,3c0,1.79-1.29,3.06-3.45,3.39v.05a4.12,4.12,0,0,1,2,1.62A14.4,14.4,0,0,1,48,27.12c0,.38-.4.67-.94.67s-.68-.13-1-.92c-2-4.18-2.73-5-4.62-5H40.26Zm1.67-6.48c2.27,0,3.56-.93,3.56-2.52s-1.23-2.39-3.39-2.39H41c-.5,0-.75.23-.75.73v4.18Z"/><path class="cls-1" d="M52.38,27a.79.79,0,0,1-.87.75.78.78,0,0,1-.86-.75V14.88a.78.78,0,0,1,.86-.75.79.79,0,0,1,.87.75Z"/><path class="cls-1" d="M62.61,17.19c-.15.83-.29,1.44-.69,3l-2,7.12a.82.82,0,0,1-.87.62c-.46,0-.69-.2-.85-.73L55,15.46a1.65,1.65,0,0,1-.11-.58.79.79,0,0,1,.88-.75c.46,0,.71.25.87.85l1.77,6.79c.25,1,.44,1.9.67,3.4h.08a29.18,29.18,0,0,1,.71-3.29l1.81-6.52a.94.94,0,0,1,1-.69.92.92,0,0,1,1,.69l1.81,6.52c.25.89.52,2.16.71,3.29h.08a31.88,31.88,0,0,1,.67-3.4L68.65,15c.16-.62.41-.85.87-.85a.81.81,0,0,1,.89.75,2,2,0,0,1-.12.58l-3.23,11.7c-.16.51-.39.73-.83.73a.8.8,0,0,1-.89-.62l-2-7.12c-.36-1.33-.57-2.25-.69-3Z"/><path class="cls-1" d="M72.33,27c-.19.6-.42.81-.91.81s-.92-.29-.92-.73a2.16,2.16,0,0,1,.15-.67l4-11.43A1.21,1.21,0,0,1,77,15l4,11.43a2,2,0,0,1,.15.67c0,.44-.36.73-.92.73s-.71-.21-.91-.81l-1-3.29H73.37Zm4.27-8.44c-.15-.43-.6-2-.75-2.66h-.08c-.21.87-.56,2-.75,2.66l-1.21,3.81h4Z"/><path class="cls-1" d="M85.24,27.06a.79.79,0,0,1-.87.73.77.77,0,0,1-.86-.73V14.88a.87.87,0,0,1,1.73,0v5.46l5.5-5.75c.33-.35.54-.46.79-.46a.84.84,0,0,1,.92.77,1,1,0,0,1-.32.69l-4.47,4.47,5.16,6.31a1.24,1.24,0,0,1,.31.67.83.83,0,0,1-.91.75,1.11,1.11,0,0,1-.94-.54l-4.73-6.17-1.31,1.36Z"/><path class="cls-1" d="M97.59,27a.79.79,0,0,1-.87.75.78.78,0,0,1-.86-.75V14.88a.78.78,0,0,1,.86-.75.79.79,0,0,1,.87.75Z"/><path class="cls-1" d="M141.91,25.86c.17-.65.59-2,1-3.17l2.83-8.49c.21-.6.47-.84,1-.84a.94.94,0,0,1,1,.84,2.26,2.26,0,0,1-.19.84L143,27.68a1.23,1.23,0,0,1-2.22,0L136.22,15a2.93,2.93,0,0,1-.19-.77.93.93,0,0,1,1-.91c.5,0,.76.24,1,.84l2.83,8.49c.53,1.55.74,2.22,1,3.17Z"/><path class="cls-1" d="M151.88,14.69a1.25,1.25,0,1,1-2.5,0,1.24,1.24,0,0,1,1.26-1.22A1.26,1.26,0,0,1,151.88,14.69Zm-.33,12.76a.91.91,0,0,1-1.81,0V18.59a.91.91,0,0,1,1.81,0Z"/><path class="cls-1" d="M162.27,13.64a.84.84,0,0,1,.9-.84.88.88,0,0,1,.93.84V27.52a.79.79,0,0,1-.84.79.75.75,0,0,1-.76-.67l-.23-1A3.78,3.78,0,0,1,159,28.46c-2.62,0-4.37-2.18-4.37-5.48s1.79-5.37,4.39-5.37a3.76,3.76,0,0,1,3.21,1.68Zm-5.71,9.3c0,2.44,1.09,4,2.82,4A2.9,2.9,0,0,0,162,25.06a5.7,5.7,0,0,0,.31-2.08,4.61,4.61,0,0,0-.39-2.18,2.92,2.92,0,0,0-2.54-1.72C157.65,19.08,156.56,20.59,156.56,22.94Z"/><path class="cls-1" d="M168.42,23.21c.06,2.33,1.28,3.7,3.28,3.7a3.35,3.35,0,0,0,2.66-1.3c.25-.3.4-.38.63-.38a.77.77,0,0,1,.78.75c0,.28-.15.55-.53,1a4.56,4.56,0,0,1-3.61,1.45c-3,0-5-2.14-5-5.4s1.91-5.39,4.75-5.39a4.48,4.48,0,0,1,3,1.09A4.66,4.66,0,0,1,175.87,22a1,1,0,0,1-1.15,1.17Zm5.29-1.32a.32.32,0,0,0,.36-.32,3,3,0,0,0-.59-1.59,2.7,2.7,0,0,0-2.14-1,2.93,2.93,0,0,0-2.84,2.9Z"/><path class="cls-1" d="M187.94,23c0,3.19-2.05,5.42-5,5.42s-5-2.23-5-5.42,2.08-5.37,5-5.37S187.94,19.87,187.94,23Zm-8.16,0c0,2.33,1.28,3.93,3.17,3.93s3.12-1.62,3.12-3.95-1.32-4-3.17-4S179.78,20.71,179.78,23Z"/><path class="cls-2" d="M108.65,36.46a14.48,14.48,0,0,0,4.45-.71,14.82,14.82,0,0,0,4-2"/><path class="cls-3" d="M117.72,33.77c1,1.27,5.59,4.35,10,6"/><path class="cls-2" d="M117.52,33.54s-4.83-5.43-7.19-7.95-8-8.41-6.06-15.12a6.87,6.87,0,0,1,7-4.87c.72,0,5.27.08,6.39,6.47,0,0,1.13-5.14,5.86-6.1a7.51,7.51,0,0,1,6.63,2c2.45,2.31,3.48,9.1-2,15.08-3,3.23-10.2,10.13-10.2,10.13Z"/><polygon class="cls-1" points="114.53 15.99 114.55 22.44 123.61 18.8 114.53 15.99"/><polygon class="cls-4" points="114.53 15.99 114.55 22.44 123.61 18.8 114.53 15.99"/></svg>